# xmcd
#
# Track frame offsets: 
#        150
#        17123
#        32390
#        54887
#        72854
#        92237
#        114255
#        131153
#        154930
#        181679
#        199172
#        217632
#        232230
#
# Disc length: 3151 seconds
#
# Revision: 0
# Processed by: cddbd v1.5.2PL0 Copyright (c) Steve Scherf et al.
# Submitted via: ExactAudioCopy v0.99pb5
#
DISCID=a60c4d0d
DTITLE=Texas City Revelators - Texas City Revelators
DYEAR=2000
DGENRE=Blues
TTITLE0=Love Will Need A Way
TTITLE1=Sweet Salvation
TTITLE2=Eye Of The Needle
TTITLE3=Billy
TTITLE4=Everybody
TTITLE5=Tromp
TTITLE6=Eightball
TTITLE7=Mama Said
TTITLE8=Only You
TTITLE9=Freedom Forever
TTITLE10=I-10 Boogie
TTITLE11=Fooled Again
TTITLE12=Bonus Track
EXTD=
EXTT0=
EXTT1=
EXTT2=
EXTT3=
EXTT4=
EXTT5=
EXTT6=
EXTT7=
EXTT8=
EXTT9=
EXTT10=
EXTT11=
EXTT12=
PLAYORDER=
